<svg width="64" height="67" viewBox="0 0 64 67" fill="none" xmlns="http://www.w3.org/2000/svg">
<g clip-path="url(#clip0_139_4)">
<path d="M21.9498 33.3812C21.4696 33.3812 20.9459 33.2066 20.3785 32.8575C19.8111 32.4646 19.4183 32.05 19.2 31.6135C19.2 30.6097 19.331 29.2348 19.5928 27.4889C19.8547 25.7431 20.1384 23.9536 20.4439 22.1204C20.7931 20.2436 21.0986 18.6505 21.3605 17.3411C20.5749 18.5632 19.6801 19.8944 18.6763 21.3348C17.6724 22.7751 16.6467 24.1281 15.5992 25.3939C14.5517 26.616 13.4823 27.6417 12.3912 28.471C11.3436 29.2566 10.3616 29.6494 9.44502 29.6494C8.52845 29.6494 7.80828 29.3439 7.28452 28.7329C6.76076 28.0782 6.49888 27.3362 6.49888 26.5069C6.49888 26.2887 6.54253 26.0049 6.62982 25.6558C7.02264 23.648 7.78646 21.7712 8.92127 20.0254C10.0997 18.2359 11.4309 16.6646 12.9149 15.3116C14.4426 13.9585 15.9484 12.8892 17.4323 12.1035C18.9163 11.3179 20.1821 10.9251 21.2296 10.9251C22.0152 10.9251 22.7572 11.0997 23.4556 11.4488C24.1975 11.7544 24.8959 12.2781 25.5506 13.0201C25.6815 13.1511 25.747 13.3038 25.747 13.4784C25.747 13.6966 25.6161 13.9149 25.3542 14.1331C25.0487 15.1806 24.7213 16.4464 24.3721 17.9303C24.0666 19.3707 23.7611 20.8765 23.4556 22.4478C23.1937 23.9754 22.9754 25.3939 22.8009 26.7033C22.6263 28.0127 22.539 29.0166 22.539 29.7149C22.539 30.195 22.6044 30.4351 22.7354 30.4351C23.0846 30.4351 23.521 30.0641 24.0448 29.3221C24.6122 28.5801 25.1578 27.729 25.6815 26.7688C26.2053 25.8085 26.6636 24.9574 27.0564 24.2154C27.4929 23.4735 27.7547 23.1025 27.842 23.1025C27.973 23.1025 28.0384 23.277 28.0384 23.6262C28.0384 24.3682 27.7984 25.2848 27.3183 26.3759C26.8382 27.4671 26.2489 28.5583 25.5506 29.6494C24.8959 30.6969 24.2194 31.5917 23.521 32.3337C22.8663 33.032 22.3426 33.3812 21.9498 33.3812ZM9.96878 27.2271C10.5798 27.2271 11.3436 26.8779 12.2602 26.1795C13.2204 25.4812 14.2025 24.5864 15.2064 23.4953C16.2539 22.4041 17.2578 21.2475 18.218 20.0254C19.2218 18.8033 20.073 17.6466 20.7713 16.5555C21.5133 15.4207 22.037 14.5041 22.3426 13.8057C21.4696 13.8057 20.4658 14.1331 19.331 14.7878C18.1962 15.3988 17.0395 16.2063 15.8611 17.2102C14.6826 18.1704 13.5914 19.2397 12.5876 20.4182C11.5837 21.553 10.7762 22.666 10.1652 23.7572C9.55414 24.8483 9.24862 25.7867 9.24862 26.5724C9.24862 27.0088 9.48867 27.2271 9.96878 27.2271ZM32.8822 32.8575C32.2275 32.8575 31.4855 32.7702 30.6562 32.5956C29.8706 32.3773 29.1722 32.1155 28.5612 31.8099C27.9938 31.4608 27.7101 31.1334 27.7101 30.8279C27.7101 30.1295 28.3648 29.7804 29.6742 29.7804C30.4162 29.7804 31.2891 29.6276 32.293 29.3221C33.2968 29.0166 34.2134 28.6892 35.0427 28.34C35.9156 27.9472 36.483 27.6635 36.7449 27.4889C36.5703 27.2271 36.1557 26.8342 35.501 26.3105C34.8463 25.7431 34.1261 25.0665 33.3405 24.2809C32.5548 23.4953 31.8565 22.6223 31.2454 21.6621C30.678 20.6583 30.3943 19.5671 30.3943 18.3886C30.3943 17.1665 30.7217 16.0317 31.3764 14.9842C32.0311 13.893 32.8385 12.911 33.7988 12.0381C34.8026 11.1215 35.8065 10.3359 36.8104 9.68115C37.8579 8.98281 38.7526 8.4154 39.4946 7.97894C39.8001 7.80435 40.1275 7.71706 40.4767 7.71706C41.175 7.71706 41.8297 7.95712 42.4408 8.43723C43.0955 8.91734 43.4228 9.37563 43.4228 9.81209C43.4228 9.85574 43.3792 9.96486 43.2919 10.1394C42.9427 10.5323 42.5499 11.1433 42.1134 11.9726C41.7206 12.8019 41.3714 13.6748 41.0659 14.5914C40.7604 15.4643 40.6076 16.2718 40.6076 17.0138C40.6076 17.8431 40.433 18.2577 40.0839 18.2577C39.9093 18.2577 39.7783 18.0831 39.691 17.7339C39.6037 17.3848 39.5601 17.0574 39.5601 16.7519C39.5601 15.879 39.691 14.9406 39.9529 13.9367C40.2584 12.9328 40.4548 12.2127 40.5421 11.7762C40.0184 11.7762 39.2982 12.1254 38.3816 12.8237C37.5087 13.4784 36.614 14.3077 35.6974 15.3116C34.7808 16.2718 33.9952 17.2538 33.3405 18.2577C32.7294 19.2179 32.4239 20.0036 32.4239 20.6146C32.4239 21.4439 32.7076 22.2077 33.275 22.906C33.8424 23.5607 34.5407 24.1718 35.37 24.7392C36.243 25.3066 37.0504 25.9177 37.7924 26.5724C38.2289 26.3978 38.9054 26.0922 39.822 25.6558C40.7386 25.1757 41.6988 24.6956 42.7026 24.2154C43.7502 23.6917 44.6667 23.2552 45.4524 22.906C46.2817 22.5569 46.8272 22.3823 47.0891 22.3823C47.1764 22.3823 47.2201 22.4041 47.2201 22.4478C47.2201 22.7533 46.8927 23.1461 46.238 23.6262C45.5833 24.1063 44.7759 24.6083 43.8156 25.132C42.8554 25.6558 41.8952 26.1577 40.935 26.6378C40.0184 27.1179 39.2982 27.4889 38.7745 27.7508C38.9054 28.1436 38.9709 28.5364 38.9709 28.9293C38.9709 29.8458 38.6435 30.5878 37.9888 31.1552C37.3778 31.7226 36.5921 32.1591 35.6319 32.4646C34.7153 32.7265 33.7988 32.8575 32.8822 32.8575ZM49.7488 10.2049C49.2251 10.2049 48.7668 10.1176 48.374 9.94303C48.1121 9.81209 47.9811 9.59386 47.9811 9.28833C47.9811 8.85187 48.1994 8.30629 48.6358 7.65159C49.116 6.99689 49.6834 6.40767 50.3381 5.88391C51.0364 5.36015 51.6693 5.09827 52.2367 5.09827C52.5422 5.09827 52.695 5.20739 52.695 5.42562C52.695 5.6002 52.5422 5.81844 52.2367 6.08032C51.7566 6.56043 51.4729 7.12783 51.3856 7.78253C51.2983 8.43723 51.1673 9.00463 50.9928 9.48474C50.8618 9.96486 50.4472 10.2049 49.7488 10.2049ZM40.1902 63.3009C39.4046 63.3009 38.8154 62.8426 38.4226 61.926C39.5574 59.4818 40.714 56.863 41.8925 54.0697C43.0273 51.2763 44.1184 48.4174 45.1659 45.4931C46.2571 42.5688 47.1737 39.71 47.9157 36.9166C46.6936 37.8768 45.4496 38.9243 44.1839 40.0591C42.9181 41.1939 41.7179 42.5033 40.5831 43.9873C39.1427 45.7768 38.0516 47.8937 37.3096 50.3379C36.5239 52.8257 36.1311 55.1172 36.1311 57.2122C36.1311 59.7437 36.6549 61.6423 37.7024 62.9081C37.8333 63.039 37.8988 63.1263 37.8988 63.17C37.8552 63.2136 37.8115 63.2354 37.7679 63.2354C37.5933 63.2354 37.3969 63.17 37.1786 63.039C36.9168 62.9081 36.6767 62.7117 36.4585 62.4498C35.5855 61.5332 34.9527 60.4202 34.5598 59.1108C34.1234 57.8451 33.9051 56.4702 33.9051 54.9862C33.9051 53.284 34.2325 51.56 34.8872 49.8141C35.5419 48.0683 36.5021 46.4315 37.7679 44.9039C39.601 42.6779 41.4123 40.8229 43.2019 39.339C44.9914 37.8986 46.7154 36.4801 48.374 35.0834C49.0287 32.5083 49.4869 29.9986 49.7488 27.5544C49.9671 25.634 50.098 23.9536 50.1416 22.5132C50.2289 21.0729 50.2726 19.8071 50.2726 18.716C50.2726 17.6248 50.2289 16.6864 50.1416 15.9008C50.0544 15.1151 49.9671 14.395 49.8798 13.7403C49.8798 13.6966 49.9016 13.6748 49.9452 13.6748C50.1635 13.6748 50.6218 13.9367 51.3201 14.4604C52.0184 14.9842 52.4113 15.6607 52.4986 16.49C52.6295 17.7994 52.695 19.1961 52.695 20.6801C52.695 22.4259 52.5859 24.2591 52.3676 26.1795C52.193 28.1 51.9312 30.0641 51.582 32.0718C52.5859 30.9807 53.5679 29.7585 54.5281 28.4055C55.532 27.0088 56.4704 25.3939 57.3433 23.5607C57.6052 23.037 57.8453 22.7751 58.0635 22.7751C58.2381 22.7751 58.3254 22.9279 58.3254 23.2334C58.3254 23.7135 58.1071 24.4119 57.6707 25.3284C57.2779 26.245 56.7977 27.1834 56.2303 28.1436C55.6629 29.1039 55.0955 29.9331 54.5281 30.6315C54.048 31.2862 53.5243 31.8972 52.9568 32.4646C52.3894 33.032 51.8002 33.5994 51.1892 34.1668C50.6218 37.2221 49.9452 40.2119 49.1596 43.1362C48.374 46.0605 47.5665 48.7448 46.7372 51.189C45.9516 53.6332 45.2314 55.6846 44.5767 57.3431C43.9657 59.0454 43.5292 60.1583 43.2673 60.6821C42.7436 61.6423 42.2198 62.3188 41.696 62.7117C41.1723 63.1045 40.6704 63.3009 40.1902 63.3009Z" fill="white"/>
</g>
<defs>
<clipPath id="clip0_139_4">
<rect width="64" height="67" fill="white"/>
</clipPath>
</defs>
</svg>
