<svg width="800" height="800" viewBox="0 0 800 800" fill="none" xmlns="http://www.w3.org/2000/svg">
<path d="M64.634 435.33C45.122 415.818 45.122 384.182 64.634 364.67L364.67 64.634C384.182 45.122 415.818 45.122 435.33 64.634L735.365 364.67C754.877 384.182 754.877 415.818 735.365 435.33L435.33 735.365C415.818 754.877 384.182 754.877 364.67 735.365L64.634 435.33Z" fill="#D4D4D8"/>
<path d="M303.722 126.538L273.34 156.922L351.812 235.394C348.637 242.205 346.865 249.8 346.865 257.81C346.865 280.55 361.152 299.953 381.24 307.53V499.495C361.152 507.073 346.865 526.475 346.865 549.215C346.865 578.555 370.65 602.34 399.99 602.34C429.33 602.34 453.115 578.555 453.115 549.215C453.115 528.6 441.372 510.725 424.21 501.92V307.793L499.222 382.805C496.202 389.478 494.522 396.885 494.522 404.685C494.522 434.025 518.307 457.81 547.647 457.81C576.987 457.81 600.772 434.025 600.772 404.685C600.772 375.345 576.987 351.56 547.647 351.56C541.945 351.56 536.455 352.458 531.305 354.12L450.742 273.558C452.285 268.583 453.115 263.293 453.115 257.81C453.115 228.47 429.33 204.685 399.99 204.685C394.507 204.685 389.22 205.515 384.242 207.058L303.722 126.538Z" fill="#18181B"/>
</svg>
