<svg width="616" height="674" viewBox="0 0 616 674" fill="none" xmlns="http://www.w3.org/2000/svg">
<path d="M590.67 16.8223L539.167 593.797L307.654 657.979L76.78 593.886L25.3296 16.8223H590.67Z" fill="#D4D4D8"/>
<path d="M308 608.92L495.074 557.057L539.085 64.0044H308V608.92Z" fill="#E4E4E7"/>
<path d="M207.878 205.556H308V134.781H130.531L132.224 153.769L149.62 348.805H308V278.03H214.347L207.878 205.556ZM223.829 384.193H152.782L162.697 495.32L307.674 535.564L308 535.475V461.839L307.69 461.921L228.869 440.638L223.829 384.193Z" fill="#18181B"/>
<path d="M307.756 348.805H394.907L386.69 440.594L307.754 461.899V535.53L452.846 495.32L453.91 483.362L470.544 297.035L472.27 278.03H307.756V348.805ZM307.756 205.383V205.556H478.71L480.128 189.649L483.355 153.769L485.046 134.781H307.756V205.383Z" fill="#18181B"/>
</svg>
