<svg version="1.1" id="Layer_1" xmlns="http://www.w3.org/2000/svg" xmlns:xlink="http://www.w3.org/1999/xlink" viewBox="0 0 128 128" xml:space="preserve">
  <path fill="#D4D4D8" d="M115.731 77.44c-13.925 2.873-14.882-1.842-14.882-1.842 14.703-21.816 20.849-49.51 15.545-56.287C101.924.823 76.875 9.566 76.457 9.793l-.135.024c-2.751-.571-5.83-.911-9.291-.967-6.301-.103-11.08 1.652-14.707 4.402 0 0-44.684-18.408-42.606 23.151.442 8.842 12.672 66.899 27.26 49.363 5.332-6.412 10.483-11.834 10.483-11.834 2.559 1.699 5.622 2.567 8.833 2.255l.25-.212c-.078.796-.042 1.575.1 2.497-3.758 4.199-2.654 4.936-10.167 6.482-7.602 1.566-3.136 4.355-.22 5.084 3.534.884 11.712 2.136 17.237-5.598l-.221.882c1.473 1.18 2.507 7.672 2.334 13.557-.174 5.885-.29 9.926.871 13.082 1.16 3.156 2.316 10.256 12.192 8.14 8.252-1.768 12.528-6.351 13.124-13.995.422-5.435 1.377-4.631 1.438-9.49l.767-2.3c.884-7.367.14-9.743 5.225-8.638l1.235.108c3.742.17 8.639-.602 11.514-1.938 6.19-2.871 9.861-7.667 3.758-6.408z"></path>
  <path fill="#ffffff" d="M75.957 122.307c-8.232 0-10.84-6.519-11.907-9.185-1.562-3.907-1.899-19.069-1.551-31.503a1.59 1.59 0 011.64-1.55 1.594 1.594 0 011.55 1.639c-.401 14.341.168 27.337 1.324 30.229 1.804 4.509 4.54 8.453 12.275 6.796 7.343-1.575 10.093-4.359 11.318-11.46.94-5.449 2.799-20.951 3.028-24.01a1.593 1.593 0 011.71-1.472 1.597 1.597 0 011.472 1.71c-.239 3.185-2.089 18.657-3.065 24.315-1.446 8.387-5.185 12.191-13.794 14.037-1.463.313-2.792.453-4 .454zM31.321 90.466a6.71 6.71 0 01-2.116-.35c-5.347-1.784-10.44-10.492-15.138-25.885-3.576-11.717-5.842-23.947-6.041-27.922-.589-11.784 2.445-20.121 9.02-24.778 13.007-9.216 34.888-.44 35.813-.062a1.596 1.596 0 01-1.207 2.955c-.211-.086-21.193-8.492-32.768-.285-5.622 3.986-8.203 11.392-7.672 22.011.167 3.349 2.284 15.285 5.906 27.149 4.194 13.742 8.967 22.413 13.096 23.79.648.216 2.62.873 5.439-2.517A245.272 245.272 0 0145.88 73.046a1.596 1.596 0 012.304 2.208c-.048.05-4.847 5.067-10.077 11.359-2.477 2.979-4.851 3.853-6.786 3.853zm69.429-13.445a1.596 1.596 0 01-1.322-2.487c14.863-22.055 20.08-48.704 15.612-54.414-5.624-7.186-13.565-10.939-23.604-11.156-7.433-.16-13.341 1.738-14.307 2.069l-.243.099c-.971.305-1.716-.227-1.997-.849a1.6 1.6 0 01.631-2.025c.046-.027.192-.089.429-.176l-.021.006.021-.007c1.641-.601 7.639-2.4 15.068-2.315 11.108.118 20.284 4.401 26.534 12.388 2.957 3.779 2.964 12.485.019 23.887-3.002 11.625-8.651 24.118-15.497 34.277-.306.457-.81.703-1.323.703zm.76 10.21c-2.538 0-4.813-.358-6.175-1.174-1.4-.839-1.667-1.979-1.702-2.584-.382-6.71 3.32-7.878 5.208-8.411-.263-.398-.637-.866-1.024-1.349-1.101-1.376-2.609-3.26-3.771-6.078-.182-.44-.752-1.463-1.412-2.648-3.579-6.418-11.026-19.773-6.242-26.612 2.214-3.165 6.623-4.411 13.119-3.716C97.6 28.837 88.5 10.625 66.907 10.271c-6.494-.108-11.82 1.889-15.822 5.93-8.96 9.049-8.636 25.422-8.631 25.586a1.595 1.595 0 11-3.19.084c-.02-.727-.354-17.909 9.554-27.916C53.455 9.272 59.559 6.96 66.96 7.081c13.814.227 22.706 7.25 27.732 13.101 5.479 6.377 8.165 13.411 8.386 15.759.165 1.746-1.088 2.095-1.341 2.147l-.576.013c-6.375-1.021-10.465-.312-12.156 2.104-3.639 5.201 3.406 17.834 6.414 23.229.768 1.376 1.322 2.371 1.576 2.985.988 2.396 2.277 4.006 3.312 5.3.911 1.138 1.7 2.125 1.982 3.283.131.23 1.99 2.98 13.021.703 2.765-.57 4.423-.083 4.93 1.45.997 3.015-4.597 6.532-7.694 7.97-2.775 1.29-7.204 2.106-11.036 2.106zm-4.696-4.021c.35.353 2.101.962 5.727.806 3.224-.138 6.624-.839 8.664-1.786 2.609-1.211 4.332-3.133 4.785-4.077-.206.014-.457.037-.745.064l-1.019.086c-4.558.94-10.207 1.32-12.781-.947-1.174-.968-2.379-2.566-3.453-4.735-.127-.275-.352-.639-.614-1.071a32.803 32.803 0 01-1.617-2.8c-2.663 1.526-4.6 4.119-3.584 7.107 1.034 2.96 2.618 4.672 3.637 5.563zM46.6 62.29c-.425 0-.85-.181-1.155-.536a1.595 1.595 0 01.12-2.247c.239-.215 5.978-5.467 11.71-12.085 6.413-7.412 12.026-14.322 12.152-14.477a1.595 1.595 0 012.512 1.969c-.227.288-5.731 7.1-12.17 14.583-5.694 6.592-11.487 12.748-11.648 12.914-.305.274-.697.382-1.042.382zm-2.12 20.656a1.597 1.597 0 01-1.465-2.257c.046-.099 4.725-9.991 10.233-15.693 2.824-2.98 6.343-4.508 10.303-4.498h.005a13.92 13.92 0 019.904 4.376c1.694 1.77 2.898 3.96 3.595 6.497a1.595 1.595 0 11-3.075.827c-.554-2.062-1.51-3.881-2.776-5.213-2.202-2.301-5.029-3.484-8.283-3.493-3.354-.006-6.313 1.17-8.766 3.474-4.973 5.261-9.29 14.62-9.333 14.713a1.593 1.593 0 01-1.337.854zm2.688-10.024c-2.15 0-4.22-.663-6.018-1.918a1.597 1.597 0 011.768-2.678c1.366.902 2.86 1.365 4.4 1.37h.004a8.234 8.234 0 005.836-2.427c.074-.073.143-.144.204-.215.033-.043.059-.076.083-.103.285-.303.543-.668.74-1.049.544-1.059.635-2.22.268-3.348-.582-1.778-2.059-3.264-4.134-4.16-1.352-.58-3.437-.992-6.312-.16a1.595 1.595 0 01-.84-3.08c3.554-.971 6.566-.808 8.971.486 2.739 1.174 4.745 3.28 5.57 5.766.602 1.843.44 3.74-.46 5.42-.269.528-.631 1.018-1.06 1.447l-.169.195c-.074.085-.157.174-.246.264-2.06 2.062-4.79 3.204-7.68 3.207h-.008zm-4.693 27.135c-4.351 0-7.762-1.67-10.13-4.964-2.584-3.62-3.061-8.663-1.418-13.425 3.104-9.128 12.385-14.83 14.601-16.063a1.598 1.598 0 011.505 2.807c-.103.055-10.354 5.728-13.139 14.283-1.301 3.822-.907 7.952 1.066 10.745 1.778 2.491 4.405 3.618 7.748 3.356 5.848-.499 8.44-4.048 9.028-5.191l.005.003c.417-1.182.635-2.453.659-3.795.029-1.698-.267-3.411-.88-5.067-2.137-5.707-6.525-9.409-12.175-10.18-1.358-.187-2.751-.156-4.154.093l.43 1.814.425 1.791a1.595 1.595 0 01-3.111.74l-1.248-5.248a1.594 1.594 0 011.82-1.952l.176.035c1.83-.338 3.637-.385 5.385-.138 6.672.916 11.767 5.349 14.353 11.942.764 2.037 1.139 4.16 1.099 6.246-.029 1.706-.299 3.341-.808 4.893-.065.224-.151.444-.263.648-1.202 2.504-4.499 7.202-11.432 7.859-.391.034-.777.05-1.156.05z"></path>
</svg>
